<?xml version="1.0" encoding="UTF-8" standalone="no"?>
<svg
   version="1.1"
   viewBox="0 0 200 170"
   id="svg77"
   sodipodi:docname="juicytrade-thumbnail.svg"
   inkscape:version="1.4 (e7c3feb1, 2024-10-09)"
   width="200"
   height="170"
   xmlns:inkscape="http://www.inkscape.org/namespaces/inkscape"
   xmlns:sodipodi="http://sodipodi.sourceforge.net/DTD/sodipodi-0.dtd"
   xmlns="http://www.w3.org/2000/svg"
   xmlns:svg="http://www.w3.org/2000/svg">
  <defs
     id="defs77" />
  <sodipodi:namedview
     id="namedview77"
     pagecolor="#505050"
     bordercolor="#eeeeee"
     borderopacity="1"
     inkscape:showpageshadow="0"
     inkscape:pageopacity="0"
     inkscape:pagecheckerboard="0"
     inkscape:deskcolor="#505050"
     inkscape:zoom="1.3211019"
     inkscape:cx="330.02754"
     inkscape:cy="108.99992"
     inkscape:window-width="1728"
     inkscape:window-height="983"
     inkscape:window-x="0"
     inkscape:window-y="34"
     inkscape:window-maximized="0"
     inkscape:current-layer="svg77" />
  <path
     fill="#8eba35"
     d="m 48.63,32.42 a 0.22,0.22 0 0 0 -0.26,0.35 q 3.8,3.64 7.29,7.84 c 4.82,5.79 7.54,11.72 11.44,18.75 a 0.34,0.35 77.8 0 1 -0.33,0.51 Q 60.25,59.34 57.11,58.65 C 45.32,56.04 36.34,48.48 31.71,37.38 28.53,29.76 26.77,22.02 24.67,15.52 a 0.71,0.72 81.8 0 1 0.7,-0.93 c 20.5,0.49 41.78,8.95 46.23,31.29 q 0.9,4.48 1.06,11.05 a 0.32,0.31 33.5 0 1 -0.61,0.12 Q 70.14,52.32 67.08,48.51 58.9,38.34 48.63,32.42 Z"
     id="path22" />
  <path
     fill="#8eba35"
     d="m 96.61,35.74 q -1,0.28 -2.33,1.27 -10.38,7.67 -15.97,19 a 0.45,0.44 44.1 0 1 -0.79,0.01 Q 77.37,55.73 77.34,55.17 C 76.36,32.22 95.52,21.28 115.88,21.1 a 0.63,0.63 0 0 1 0.61,0.81 c -2.41,8.08 -3.94,15.25 -7.66,21.62 q -8.34,14.29 -26.14,15.32 a 0.91,0.92 10.7 0 1 -0.88,-1.3 Q 87.43,45.4 96.83,36.11 a 0.22,0.22 0 0 0 -0.22,-0.37 z"
     id="path23" />
  <path
     fill="#f28f3a"
     d="m 45.88,125.13 c 2.01,1.57 3.32,6.56 6.37,8.41 7.22,4.38 15.73,0.53 15.64,-8.38 q -0.16,-14.71 -0.06,-51.09 0.01,-4.4 0.97,-5.82 c 4.03,-6.04 16.5,-4.94 18.77,2.25 q 0.31,0.96 0.35,9.17 0.08,12.74 0.18,39.55 0.04,11.03 -1.62,15.91 -4.14,12.19 -17.85,16.43 c -11.98,3.72 -27.92,0.81 -35.63,-9.75 -3.51,-4.82 -5.08,-11.98 -0.36,-16.41 3.12,-2.92 8.75,-2.83 12.29,-0.9 a 7.44,7.7 79.5 0 1 0.95,0.63 z"
     id="path25" />
  <path
     fill="#284676"
     d="M 133.22,66.15 Q 156.2,66.16 163,66.08 c 8.85,-0.11 9.96,14.8 1.82,17.38 q -1.09,0.34 -6.68,0.3 -0.25,0 -14.26,-0.03 a 0.62,0.62 0 0 0 -0.62,0.62 q 0,57.53 -0.02,59.15 c -0.09,5.89 -4.61,8.82 -10.05,8.82 -5.45,0 -9.97,-2.94 -10.05,-8.83 q -0.02,-1.62 0.03,-59.15 a 0.62,0.62 0 0 0 -0.62,-0.62 q -14.01,0.02 -14.26,0.02 -5.59,0.03 -6.68,-0.31 c -8.14,-2.58 -7.02,-17.49 1.83,-17.38 q 6.8,0.09 29.78,0.1 z"
     id="path26" />
</svg>
