<?xml version="1.0" encoding="UTF-8" standalone="no"?>
<svg
   version="1.1"
   viewBox="0 0 106 147"
   id="svg77"
   sodipodi:docname="favicon.svg"
   inkscape:version="1.4 (e7c3feb1, 2024-10-09)"
   width="106"
   height="147"
   xmlns:inkscape="http://www.inkscape.org/namespaces/inkscape"
   xmlns:sodipodi="http://sodipodi.sourceforge.net/DTD/sodipodi-0.dtd"
   xmlns="http://www.w3.org/2000/svg"
   xmlns:svg="http://www.w3.org/2000/svg">
  <defs
     id="defs77" />
  <sodipodi:namedview
     id="namedview77"
     pagecolor="#505050"
     bordercolor="#eeeeee"
     borderopacity="1"
     inkscape:showpageshadow="0"
     inkscape:pageopacity="0"
     inkscape:pagecheckerboard="0"
     inkscape:deskcolor="#505050"
     inkscape:zoom="1.3211019"
     inkscape:cx="329.64906"
     inkscape:cy="108.99992"
     inkscape:window-width="1728"
     inkscape:window-height="983"
     inkscape:window-x="0"
     inkscape:window-y="34"
     inkscape:window-maximized="0"
     inkscape:current-layer="svg77" />
  <path
     fill="#8eba35"
     d="m 30.63,22.42 a 0.22,0.22 0 0 0 -0.26,0.35 q 3.8,3.64 7.29,7.84 c 4.82,5.79 7.54,11.72 11.44,18.75 a 0.34,0.35 77.8 0 1 -0.33,0.51 Q 42.25,49.34 39.11,48.65 C 27.32,46.04 18.34,38.48 13.71,27.38 10.53,19.76 8.77,12.02 6.67,5.52 a 0.71,0.72 81.8 0 1 0.7,-0.93 c 20.5,0.49 41.78,8.95 46.23,31.29 q 0.9,4.48 1.06,11.05 a 0.32,0.31 33.5 0 1 -0.61,0.12 Q 52.14,42.32 49.08,38.51 40.9,28.34 30.63,22.42 Z"
     id="path22" />
  <path
     fill="#8eba35"
     d="m 78.61,25.74 q -1,0.28 -2.33,1.27 -10.38,7.67 -15.97,19 a 0.45,0.44 44.1 0 1 -0.79,0.01 Q 59.37,45.73 59.34,45.17 C 58.36,22.22 77.52,11.28 97.88,11.1 a 0.63,0.63 0 0 1 0.61,0.81 c -2.41,8.08 -3.94,15.25 -7.66,21.62 Q 82.49,47.82 64.69,48.85 a 0.91,0.92 10.7 0 1 -0.88,-1.3 Q 69.43,35.4 78.83,26.11 a 0.22,0.22 0 0 0 -0.22,-0.37 z"
     id="path23" />
  <path
     fill="#f28f3a"
     d="m 27.88,115.13 c 2.01,1.57 3.32,6.56 6.37,8.41 7.22,4.38 15.73,0.53 15.64,-8.38 q -0.16,-14.71 -0.06,-51.09 0.01,-4.4 0.97,-5.82 c 4.03,-6.04 16.5,-4.94 18.77,2.25 q 0.31,0.96 0.35,9.17 0.08,12.74 0.18,39.55 0.04,11.03 -1.62,15.91 -4.14,12.19 -17.85,16.43 c -11.98,3.72 -27.92,0.81 -35.63,-9.75 -3.51,-4.82 -5.08,-11.98 -0.36,-16.41 3.12,-2.92 8.75,-2.83 12.29,-0.9 a 7.44,7.7 79.5 0 1 0.95,0.63 z"
     id="path25" />
</svg>
