<?xml version="1.0" encoding="UTF-8" standalone="no"?>
<svg
   version="1.1"
   viewBox="0 0 711 232"
   id="svg77"
   sodipodi:docname="juicytrade-logo.svg"
   inkscape:version="1.4 (e7c3feb1, 2024-10-09)"
   width="711"
   height="232"
   xmlns:inkscape="http://www.inkscape.org/namespaces/inkscape"
   xmlns:sodipodi="http://sodipodi.sourceforge.net/DTD/sodipodi-0.dtd"
   xmlns="http://www.w3.org/2000/svg"
   xmlns:svg="http://www.w3.org/2000/svg">
  <defs
     id="defs77" />
  <sodipodi:namedview
     id="namedview77"
     pagecolor="#505050"
     bordercolor="#eeeeee"
     borderopacity="1"
     inkscape:showpageshadow="0"
     inkscape:pageopacity="0"
     inkscape:pagecheckerboard="0"
     inkscape:deskcolor="#505050"
     inkscape:zoom="0.63865487"
     inkscape:cx="313.15818"
     inkscape:cy="529.23733"
     inkscape:window-width="1728"
     inkscape:window-height="983"
     inkscape:window-x="0"
     inkscape:window-y="34"
     inkscape:window-maximized="0"
     inkscape:current-layer="svg77" />
  <path
     fill="#8eba35"
     d="m 56.63,52.42 a 0.22,0.22 0 0 0 -0.26,0.35 q 3.8,3.64 7.29,7.84 c 4.82,5.79 7.54,11.72 11.44,18.75 a 0.34,0.35 77.8 0 1 -0.33,0.51 Q 68.25,79.34 65.11,78.65 C 53.32,76.04 44.34,68.48 39.71,57.38 36.53,49.76 34.77,42.02 32.67,35.52 a 0.71,0.72 81.8 0 1 0.7,-0.93 c 20.5,0.49 41.78,8.95 46.23,31.29 q 0.9,4.48 1.06,11.05 a 0.32,0.31 33.5 0 1 -0.61,0.12 Q 78.14,72.32 75.08,68.51 66.9,58.34 56.63,52.42 Z"
     id="path22" />
  <path
     fill="#8eba35"
     d="m 104.61,55.74 q -1,0.28 -2.33,1.27 -10.38,7.67 -15.97,19 a 0.45,0.44 44.1 0 1 -0.79,0.01 Q 85.37,75.73 85.34,75.17 C 84.36,52.22 103.52,41.28 123.88,41.1 a 0.63,0.63 0 0 1 0.61,0.81 c -2.41,8.08 -3.94,15.25 -7.66,21.62 q -8.34,14.29 -26.14,15.32 a 0.91,0.92 10.7 0 1 -0.88,-1.3 Q 95.43,65.4 104.83,56.11 a 0.22,0.22 0 0 0 -0.22,-0.37 z"
     id="path23" />
  <ellipse
     fill="#f28f3a"
     cx="-204.17598"
     cy="-69.886887"
     transform="rotate(-175.1)"
     rx="11.31"
     ry="10.9"
     id="ellipse23" />
  <path
     fill="#284676"
     d="m 584.5,113.6 a 0.22,0.22 0 0 0 0.4,-0.13 q 0,-0.44 -0.02,-23.29 0,-5.03 1.17,-6.76 c 2.63,-3.89 8.01,-4.18 12.25,-2.95 q 5.37,1.55 5.78,7.54 0.21,2.97 0.14,11.99 -0.18,27.8 0,57.75 0.06,9.04 -0.54,10.38 -2.03,4.6 -8.9,4.1 c -5.93,-0.43 -7.65,-4.35 -8.42,-9.39 a 0.36,0.35 55.1 0 0 -0.66,-0.12 c -7.86,14.15 -27.86,12.49 -37.38,1.91 -5.44,-6.04 -8.17,-15.41 -8.39,-23.86 -0.26,-10.23 1.21,-19.28 7.72,-27.35 q 5.67,-7.04 14.34,-8.38 c 5.87,-0.9 13.23,0.06 18.22,3.79 q 2.03,1.52 4.29,4.77 z m -25.1,25.22 c 0.12,8.49 2.38,17.53 12.85,17.38 10.47,-0.15 12.48,-9.25 12.36,-17.73 -0.12,-8.49 -2.39,-17.53 -12.85,-17.38 -10.47,0.15 -12.48,9.25 -12.36,17.73 z"
     id="path24" />
  <path
     fill="#f28f3a"
     d="m 53.88,145.13 c 2.01,1.57 3.32,6.56 6.37,8.41 7.22,4.38 15.73,0.53 15.64,-8.38 q -0.16,-14.71 -0.06,-51.09 0.01,-4.4 0.97,-5.82 c 4.03,-6.04 16.5,-4.94 18.77,2.25 q 0.31,0.96 0.35,9.17 0.08,12.74 0.18,39.55 0.04,11.03 -1.62,15.91 -4.14,12.19 -17.85,16.43 c -11.98,3.72 -27.92,0.81 -35.63,-9.75 -3.51,-4.82 -5.08,-11.98 -0.36,-16.41 3.12,-2.92 8.75,-2.83 12.29,-0.9 a 7.44,7.7 79.5 0 1 0.95,0.63 z"
     id="path25" />
  <path
     fill="#284676"
     d="M 385.22,86.15 Q 408.2,86.16 415,86.08 c 8.85,-0.11 9.96,14.8 1.82,17.38 q -1.09,0.34 -6.68,0.3 -0.25,0 -14.26,-0.03 a 0.62,0.62 0 0 0 -0.62,0.62 q 0,57.53 -0.02,59.15 c -0.09,5.89 -4.61,8.82 -10.05,8.82 -5.45,0 -9.97,-2.94 -10.05,-8.83 q -0.02,-1.62 0.03,-59.15 a 0.62,0.62 0 0 0 -0.62,-0.62 q -14.01,0.02 -14.26,0.02 -5.59,0.03 -6.68,-0.31 c -8.14,-2.58 -7.02,-17.49 1.83,-17.38 q 6.8,0.09 29.78,0.1 z"
     id="path26" />
  <path
     fill="#f28f3a"
     d="m 238.34,138.44 c -0.04,7.45 1.67,14.72 9.52,16.99 q 5,1.44 10.23,-1.29 a 4.05,3.74 7 0 0 0.93,-0.67 q 2.19,-2.19 4.06,-5.26 c 2.07,-3.41 8.01,-3.12 11.15,-1.72 4.52,2 5.52,7.2 3.86,11.58 -4.65,12.31 -21.43,16.18 -33.03,14.1 -17.23,-3.07 -26.72,-16.57 -26.64,-33.82 0.08,-17.25 9.69,-30.66 26.95,-33.59 11.61,-1.97 28.36,2.05 32.9,14.4 1.62,4.4 0.57,9.59 -3.97,11.55 -3.15,1.37 -9.09,1.61 -11.13,-1.82 q -1.85,-3.09 -4.02,-5.3 a 3.74,4.05 83.5 0 0 -0.92,-0.68 q -5.2,-2.77 -10.22,-1.37 c -7.87,2.19 -9.64,9.44 -9.67,16.9 z"
     id="path27" />
  <path
     fill="#f28f3a"
     d="m 316.58,149.14 a 0.2,0.2 0 0 0 0.38,-0.01 q 6.27,-19.58 12.15,-37.05 1.21,-3.61 2.8,-4.91 c 3.55,-2.9 9.12,-2.98 12.89,-0.64 4.96,3.08 2.75,10.48 0.93,14.98 -6.22,15.4 -12.67,33.49 -19.79,50.84 q -4.14,10.08 -5.85,12.65 c -4.86,7.32 -13.87,12.37 -22.81,12.17 q -6.14,-0.14 -8.91,-2.95 c -3.74,-3.8 -3.78,-12.28 2.54,-14.08 1.79,-0.51 4.49,0.11 6.52,0.22 a 3.82,3.88 33.9 0 0 1.87,-0.38 q 5.3,-2.54 7.2,-8.36 a 2.29,2.32 41.8 0 0 -0.08,-1.66 q -8.37,-19.1 -21.14,-52 -1.39,-3.57 -1.11,-5.77 0.77,-6.2 6.59,-7.34 5.91,-1.16 9.5,1.9 1.77,1.5 4.36,8.73 8.14,22.76 11.96,33.66 z"
     id="path28" />
  <path
     fill="#284676"
     d="m 443.21,115.69 q 4.16,-10.5 15.47,-11.1 c 13.24,-0.7 13.4,18.98 0.3,18.28 -6.94,-0.36 -12.46,0.78 -14.75,8.14 q -0.89,2.88 -0.84,8.26 0.19,19.44 0.06,26.64 a 2.35,2.33 59.9 0 1 -0.28,1.07 q -2.84,5.37 -9.65,5.3 -7.01,-0.07 -9.49,-6.08 a 2.69,2.7 33.8 0 1 -0.2,-1.02 q 0.08,-37.91 -0.11,-49.54 -0.07,-3.74 0.85,-5.62 c 2.39,-4.9 7.5,-5.67 12.47,-4.25 5.05,1.44 4.93,5.74 5.62,9.86 a 0.29,0.29 0 0 0 0.55,0.06 z"
     id="path29" />
  <path
     fill="#284676"
     d="m 634.94,144.21 c 0.13,12.98 15.11,16.16 24.34,9.19 1.35,-1.01 4.49,-3.54 6.88,-3.97 4.06,-0.73 8.97,0.43 9.94,5.23 1.06,5.29 -3.49,10.61 -7.85,13.05 q -15.56,8.71 -32.5,2.83 c -16.18,-5.62 -22.86,-23.26 -19.87,-39.27 q 3.65,-19.56 22,-25.41 c 7.46,-2.38 17.28,-1.9 24.55,1.93 q 11.8,6.23 15.27,20.25 c 1.3,5.28 1.3,11.92 -3.38,14.85 q -1.69,1.06 -7.77,1.03 -8.72,-0.05 -31.13,-0.19 a 0.47,0.48 0.6 0 0 -0.48,0.48 z m 0.83,-12.8 h 23.94 a 0.29,0.29 0 0 0 0.29,-0.29 v -0.22 a 11.48,11.65 0 0 0 -11.48,-11.65 h -1.56 a 11.48,11.65 0 0 0 -11.48,11.65 v 0.22 a 0.29,0.29 0 0 0 0.29,0.29 z"
     id="path30" />
  <path
     fill="#f28f3a"
     d="m 154.13,162.96 a 0.37,0.37 0 0 0 -0.69,-0.13 q -1.99,3.85 -6.14,6.29 -11.64,6.83 -23.98,1.37 c -9.73,-4.3 -12.1,-14.08 -12.24,-23.74 q -0.2,-14.02 -0.18,-33.38 c 0,-7.68 7.87,-10.09 13.98,-7.98 4.67,1.62 5.47,5.27 5.55,10.32 q 0.25,15.73 -0.02,28.8 c -0.31,15.07 22.08,14.64 22.34,-0.03 q 0.21,-11.84 0.09,-29.47 -0.03,-3.7 0.89,-5.41 c 2.91,-5.44 10.16,-6 14.85,-3.39 q 3.78,2.1 3.82,7.56 0.13,17.46 -0.06,52.58 a 1.9,1.89 53 0 1 -0.07,0.51 q -1.65,5.46 -7.62,5.49 -9.4,0.04 -10.52,-9.39 z"
     id="path31" />
  <rect
     fill="#f28f3a"
     x="187.36824"
     y="105.22449"
     transform="rotate(-0.1)"
     width="19.32"
     height="67.400002"
     rx="8.3800001"
     id="rect31" />
  <path
     fill="#284676"
     d="m 511.62,163.9 a 0.38,0.38 0 0 0 -0.68,-0.15 c -7.57,10.06 -21.55,11.58 -32.18,5.97 -6.87,-3.63 -9.65,-12.22 -8.3,-19.32 3.44,-18.13 24.34,-17.59 37.84,-20.28 a 2,2.01 87.4 0 0 1.6,-1.74 q 0.25,-2.29 -1.35,-4.98 c -2.25,-3.77 -9.19,-4.19 -12.77,-3.16 q -4.03,1.16 -5.58,5.33 c -1.14,3.06 -6.53,3.27 -9.66,2.85 -8.22,-1.11 -7.67,-10.65 -3.22,-15.59 6.51,-7.23 18.87,-8.88 28.7,-7.92 13.62,1.32 22.22,9.23 22.32,23.54 q 0.19,24.63 0.04,26.73 a 2.88,2.86 25.7 0 0 0.78,2.2 c 4.3,4.57 2.7,13.48 -3.89,14.67 q -11.39,2.04 -13.65,-8.15 z m -2.39,-22.62 q -12.45,2.99 -14.98,3.91 -5.77,2.08 -5.03,8.34 c 0.26,2.14 2.28,3.9 4.21,4.32 q 8.23,1.77 13.27,-3.48 c 3.35,-3.49 3.29,-7.7 3.21,-12.56 a 0.55,0.55 0 0 0 -0.68,-0.53 z"
     id="path32" />
</svg>
