<svg xmlns:xlink="http://www.w3.org/1999/xlink" xmlns="http://www.w3.org/2000/svg" width="16.8" height="28" viewBox="0 0 30 50" fill="none" data-testid="public-logo" class="css-7rwq29"><path d="M15 29.9917C23.2843 29.9917 30 23.2779 30 14.9959C30 6.71388 23.2843 0 15 0C6.71573 0 0 6.71388 0 14.9959C0 23.2779 6.71573 29.9917 15 29.9917Z" fill="#0038FF"></path><path d="M7.5 50C8.98134 50 10.4295 49.5614 11.6618 48.7396C12.8941 47.9178 13.8554 46.7495 14.4245 45.3822C14.9935 44.0149 15.1447 42.5097 14.8592 41.0566C14.5736 39.6034 13.864 38.2674 12.8198 37.2169C11.7756 36.1664 10.4437 35.4486 8.99192 35.154C7.54019 34.8594 6.0337 35.0011 4.66246 35.5614C3.29122 36.1217 2.11664 37.0754 1.28688 38.3022C0.457116 39.529 0.00933129 40.9739 0 42.4548C0.000735478 44.4475 0.789652 46.3591 2.19467 47.7726C3.59968 49.1861 5.50679 49.9868 7.5 50Z" fill="#0038FF"></path></svg>