<svg xmlns:xlink="http://www.w3.org/1999/xlink" xmlns="http://www.w3.org/2000/svg" width="177" height="32" viewBox="0 0 177 32" fill="none">
<g clip-path="url(#clip0_8114_4249)">
<path d="M16.7172 20.2353C15.2456 24.2941 10.3601 26.2941 5.88669 24.6471C1.35437 23 -1.05895 18.3529 0.471448 14.2941C1.94298 10.2353 6.82847 8.23529 11.3019 9.88235C15.7754 11.5294 18.1887 16.1765 16.7172 20.2353Z" fill="#E21E26"/>
<path d="M2.35631 15.293C1.0025 17.2341 2.35631 20.1753 3.53354 21.293C4.53418 22.293 6.82977 23.5283 8.94878 23.1165C6.30002 21.8812 2.65062 19.6459 2.47403 15.3518" fill="#1D191B"/>
<path d="M13.5394 18.4701C13.2451 18.9995 12.421 19.0583 11.7735 18.7054C11.1261 18.2936 10.8318 17.5878 11.1261 17.0583C11.4204 16.5289 12.2444 16.4701 12.8919 16.823C13.5982 17.2348 13.8926 17.9407 13.5394 18.4701Z" fill="white"/>
<path d="M15.6004 0.294816C15.5415 0.235992 15.5415 0.177169 15.4827 0.118345C15.4827 0.0595218 15.4238 0.000698224 15.365 0.0595218C15.3061 0.000698224 15.3061 0.0595218 15.2472 0.118345C15.1884 0.177169 15.1295 0.235992 15.0707 0.235992C15.0118 0.235992 15.0118 0.235992 14.9529 0.177169C14.9529 0.118345 14.8941 0.118345 14.8352 0.118345C14.7763 0.118345 14.7175 0.118345 14.482 0.647757C14.0111 1.23599 13.5403 1.82423 13.0694 2.41246C13.0694 2.41246 13.0694 2.41246 13.0105 2.47129C12.5985 3.05952 12.1276 3.70658 11.7744 4.29482C11.3624 4.94187 11.0092 5.58893 10.6561 6.29482C10.3029 6.94187 10.0086 7.64776 9.77313 8.35364C9.65541 8.70658 9.53769 9.11835 9.47882 9.47129C9.41996 9.82423 9.3611 10.236 9.30224 10.5889C9.24338 10.7654 9.24338 10.9419 9.24338 11.1183C9.24338 11.236 9.18452 11.4125 9.18452 11.5301C9.12566 11.8242 9.12566 12.1183 9.18452 12.4125C9.18452 12.6478 9.24338 12.8242 9.24338 13.0007C8.65477 12.6478 8.5959 12.3536 8.47818 12.0007C8.41932 11.7066 8.3016 11.2948 8.00729 11.3536C7.71299 11.4125 7.5364 11.7066 7.59526 12.0007C7.77185 12.7066 8.41932 13.2948 9.30224 13.5889C9.41996 13.6478 9.53769 13.6478 9.71427 13.7066C10.4795 13.8831 11.4212 13.8242 12.0687 13.3536C12.3042 13.1772 12.363 12.8242 12.1276 12.5889C11.951 12.3536 11.3624 13.0595 10.7149 13.1772C10.5972 13.1772 10.5383 13.236 10.3617 13.236C10.244 12.5301 10.3029 11.7654 10.4206 11.0595C10.5383 10.2948 10.7149 9.53011 11.0092 8.7654C11.2447 8.05952 11.539 7.35364 11.8333 6.70658C11.951 6.47129 12.0687 6.23599 12.1864 6.0007C12.7162 5.0007 13.3637 4.0007 14.07 3.11835C14.4232 2.70658 15.0118 2.11835 15.4238 1.7654L15.4827 1.70658C15.5415 1.64776 15.7181 1.53011 15.9536 1.29482H16.0124V1.23599C16.0124 1.0007 15.8358 0.647757 15.6004 0.294816Z" fill="white"/>
<path d="M29.4323 4.82422H26.4892C26.4892 8.5301 24.5468 10.5301 21.1328 10.5301V12.883H23.8404V21.1772C23.8404 24.1772 26.1949 25.0007 28.8436 25.0007C30.7272 25.0007 31.5513 24.883 33.0228 24.5301V21.4713C32.081 21.7066 31.4924 21.7654 30.8449 21.7654C29.7854 21.7654 29.4911 21.5301 29.4911 20.4713V12.883H33.0817V10.4125H29.4323V4.82422Z" fill="white"/>
<path d="M48.7382 20.7654V14.1772C48.7382 10.4713 44.7945 9.82422 41.9692 9.82422C39.6147 9.82422 34.9647 10.1183 34.9647 13.4125C34.9647 14.9419 36.3774 15.8242 37.79 15.8242C39.0261 15.8242 40.4388 15.236 40.4388 13.8242C40.4388 13.0007 40.0268 12.5889 39.3793 12.2948C39.6147 12.0595 40.0856 11.7066 41.2628 11.7066C42.0869 11.7066 43.0287 12.0007 43.1464 13.2948V15.5889C41.6749 15.7654 40.3799 16.0595 39.085 16.4713C36.6128 17.236 34.1406 18.236 34.1406 21.1183C34.1406 23.8242 36.4362 25.0595 38.8495 25.0595C40.6742 25.0595 42.5578 24.3536 43.5584 22.5301C43.9116 24.7654 45.3831 25.0595 46.6781 25.0595C49.5623 25.0595 50.2098 24.5301 50.8572 24.236V21.4125C50.5041 21.5889 50.0332 21.7654 49.6212 21.7654C49.0325 21.7654 48.7382 21.4713 48.7382 20.7654ZM43.0875 19.8242C43.0875 20.8242 42.1458 21.7066 41.1451 21.7066C40.3799 21.7066 39.9679 21.0595 39.9679 20.3536C39.9679 18.5889 41.616 17.883 43.0875 17.7066V19.8242Z" fill="white"/>
<path d="M63.4544 15.8237L57.4506 14.4119C56.9797 14.2943 56.6854 14.059 56.6854 13.5884C56.6854 12.5296 58.0392 12.2943 58.8633 12.2943C60.7468 12.2943 62.4538 13.059 63.1013 14.8825H65.5734V9.70605H63.5133L62.8658 10.7649C61.3354 10.059 59.8639 9.70605 58.0981 9.70605C54.9195 9.70605 51.5645 11.1178 51.5645 14.7649C51.5645 17.0002 52.6828 18.2943 54.9196 18.7061L60.3348 19.8825C60.9823 19.9413 61.3354 20.2943 61.3354 20.8825C61.3354 22.0002 59.8639 22.1766 59.0398 22.1766C57.1563 22.1766 54.9784 21.2943 54.3309 19.2943H51.8588V24.5884H54.1544L54.6841 23.4708C56.1556 24.4708 57.9215 24.8825 59.7462 24.8825C62.7481 24.8825 66.4564 23.3531 66.4564 19.7649C66.4564 18.0002 65.3969 16.2355 63.4544 15.8237Z" fill="white"/>
<path d="M104.54 4.70605H101.538C101.538 7.76488 100.184 9.70605 97.7707 10.2943C97.5353 10.3531 97.2998 10.3531 97.0644 10.3531H90.4131V12.8237H91.6491C92.2966 12.8237 92.2966 13.0002 92.2966 13.2943C92.2966 13.5884 91.9434 14.5296 89.7656 19.4119L89.4713 20.7061L89.2358 19.4119C87.4111 15.1766 86.7636 13.6472 86.7636 13.2943C86.7636 12.8237 86.9991 12.8237 88.0586 12.8237H88.8238V10.3531H83.232H74.9914V4.70605H71.9895C71.9895 8.41194 70.047 10.4708 66.5742 10.4708V12.8237H69.2818V21.2355C69.2818 24.2355 71.6952 25.059 74.2851 25.059C76.1686 25.059 77.0515 24.9413 78.5231 24.5884V21.4708C77.5813 21.7061 76.9927 21.7649 76.3452 21.7649C75.2857 21.7649 74.9914 21.5296 74.9914 20.4708V12.8237H80.0535C80.5244 12.8237 80.7598 13.1178 80.9952 13.4708C86.5871 26.4708 86.5871 26.4708 86.5871 26.5296C85.9396 28.5884 84.9389 29.6472 83.5263 29.6472C83.1731 29.6472 82.9377 29.5296 82.8199 29.4119C83.5851 29.0002 83.9972 28.5296 83.9972 27.6472C83.9972 26.2355 82.9377 25.4708 81.5839 25.4708C79.818 25.4708 78.5819 26.4708 78.5819 28.3531C78.5819 30.8237 80.9364 31.9413 83.1142 31.9413C85.4687 31.9413 87.5877 30.8825 88.5295 28.7061C94.4745 15.0002 94.9454 13.0002 95.7694 12.7649H98.7125V21.1766C98.7125 24.1766 101.126 25.0002 103.716 25.0002C105.599 25.0002 106.482 24.8825 107.954 24.5296V21.4119C107.012 21.6472 106.423 21.7061 105.776 21.7061C104.716 21.7061 104.422 21.4708 104.422 20.4119V12.7649H108.071V10.2943H104.422L104.54 4.70605Z" fill="white"/>
<path d="M121.196 9.82422C119.901 9.82422 118.194 10.1183 116.899 12.5301L117.135 10.0595L109.424 10.2948V12.7654H110.307C111.013 12.7654 111.484 12.7654 111.484 13.8242V21.7654C111.484 22.1772 111.249 22.236 111.013 22.236H109.424V24.7066H120.725V22.236H117.723C117.429 22.236 117.194 22.0595 117.194 21.6477V16.1772C117.194 14.1772 118.665 12.4713 119.901 12.4713C119.607 12.8242 119.43 13.1772 119.43 13.7654C119.43 15.236 120.666 16.1183 122.138 16.1183C123.963 16.1183 125.199 14.4125 124.963 12.6477C124.728 10.7066 123.08 9.82422 121.196 9.82422Z" fill="white"/>
<path d="M139.68 20.8237V14.1178C139.68 10.4119 135.678 9.70605 132.852 9.70605C130.498 9.70605 125.789 10.0002 125.789 13.3531C125.789 14.9413 127.202 15.7649 128.673 15.7649C129.909 15.7649 131.322 15.1766 131.322 13.7649C131.322 12.9413 130.91 12.5296 130.203 12.1766C130.439 11.9413 130.91 11.5884 132.087 11.5884C132.911 11.5884 133.912 11.8825 133.971 13.1766V15.5296C132.499 15.7061 131.204 16.0002 129.909 16.4119C127.437 17.1766 124.965 18.2355 124.965 21.1178C124.965 23.8825 127.319 25.1178 129.733 25.1178C131.557 25.1178 133.441 24.4119 134.5 22.5884C134.854 24.8825 136.325 25.1178 137.679 25.1178C140.622 25.1178 141.269 24.5884 141.917 24.2943V21.4119C141.505 21.5884 141.034 21.7649 140.622 21.7649C139.916 21.7649 139.68 21.4708 139.68 20.8237ZM133.971 19.8825C133.971 20.8825 133.029 21.7649 132.028 21.7649C131.263 21.7649 130.792 21.1178 130.792 20.4119C130.792 18.6472 132.499 17.9413 133.912 17.7061L133.971 19.8825Z" fill="white"/>
<path d="M158.161 21.6464V3.41113L150.097 3.88172V6.35231H151.804C152.216 6.35231 152.511 6.64643 152.511 7.05819V10.8229L152.805 11.8817C151.51 9.99937 149.744 9.8229 148.685 9.8229C144.211 9.8229 141.975 13.2347 141.975 17.4111C141.975 21.5876 143.682 25.2935 148.214 25.2935C149.862 25.2935 151.628 24.8229 152.57 23.3523V24.8229H160.28V22.3523H158.75C158.456 22.2347 158.161 21.9994 158.161 21.6464ZM150.215 22.5288C148.449 22.5288 148.037 21.3523 148.037 17.6464C148.037 13.9405 148.508 12.47 150.333 12.47C152.57 12.47 152.57 15.8817 152.57 17.5876C152.57 19.7052 152.393 22.5288 150.215 22.5288Z" fill="white"/>
<path d="M169.875 22.2943C167.108 22.2943 166.166 20.7649 166.166 18.1178H176.585C176.585 12.8237 173.818 9.70605 168.403 9.70605C163.577 9.70605 160.045 12.4708 160.045 17.4119C160.045 22.7649 163.577 25.1178 168.521 25.1178C171.994 25.1178 176.173 23.7061 176.408 19.6472H173.465C172.994 21.6472 171.935 22.2943 169.875 22.2943ZM168.403 12.4119C170.169 12.4119 170.463 14.2943 170.463 15.6472H166.225C166.225 14.2943 166.814 12.4119 168.403 12.4119Z" fill="white"/>
</g>
<defs>
<clipPath id="clip0_8114_4249">
<rect width="176.584" height="32" fill="white"/>
</clipPath>
</defs>
</svg>