<svg xmlns:xlink="http://www.w3.org/1999/xlink" width="89" height="25" viewBox="0 0 89 25" fill="none" xmlns="http://www.w3.org/2000/svg">
          <title fill="none">Alpaca</title>
          <desc fill="none">http://alpaca.markets/</desc>
          <path class="footi__logo__text" d="M40.583 18.3716L39.7605 15.9376H34.4966L33.6741 18.3716H31.2798L35.8309 5.36523H38.4262L42.9773 18.3716H40.583ZM35.1546 13.9309H39.1025L37.1651 8.17089H37.092L35.1546 13.9309Z" fill="black"></path>
          <path class="footi__logo__text" d="M44.2587 18.3716V5.36523H46.452V18.3716H44.2587Z" fill="black"></path>
          <path class="footi__logo__text" d="M53.6686 9.24857C54.814 9.24857 55.7644 9.68211 56.5198 10.5492C57.2875 11.4163 57.6713 12.5435 57.6713 13.9309C57.6713 15.3058 57.2875 16.4268 56.5198 17.2939C55.7522 18.161 54.8018 18.5946 53.6686 18.5946C53.0837 18.5946 52.5537 18.4769 52.0784 18.2415C51.6032 17.9938 51.2499 17.6779 51.0184 17.2939H50.9635V22.5336H48.7702V9.47153H50.7625L50.8539 10.6049H50.927C51.1585 10.1962 51.524 9.86792 52.0236 9.62018C52.5232 9.37244 53.0715 9.24857 53.6686 9.24857ZM53.1568 16.6065C53.8392 16.6065 54.3875 16.3649 54.8018 15.8818C55.2282 15.3987 55.4415 14.7484 55.4415 13.9309C55.4415 13.1009 55.2282 12.4444 54.8018 11.9613C54.3875 11.4782 53.8392 11.2367 53.1568 11.2367C52.5354 11.2367 52.0114 11.4411 51.5849 11.8498C51.1707 12.2462 50.9635 12.7355 50.9635 13.3177V14.5254C50.9635 15.1076 51.1707 15.6031 51.5849 16.0119C52.0114 16.4083 52.5354 16.6065 53.1568 16.6065Z" fill="black"></path>
          <path class="footi__logo__text" d="M65.9264 9.47153H67.9186V18.3716H65.9264L65.8167 17.2382H65.7619C65.5182 17.647 65.1466 17.9752 64.647 18.223C64.1596 18.4707 63.6174 18.5946 63.0203 18.5946C61.8749 18.5946 60.9184 18.161 60.1508 17.2939C59.3831 16.4268 58.9993 15.3058 58.9993 13.9309C58.9993 12.5559 59.3831 11.4349 60.1508 10.5678C60.9184 9.68831 61.8749 9.24857 63.0203 9.24857C63.6174 9.24857 64.1596 9.37244 64.647 9.62018C65.1466 9.86792 65.5182 10.1962 65.7619 10.6049H65.8167L65.9264 9.47153ZM65.7254 14.5254V13.3177C65.7254 12.7355 65.5121 12.2462 65.0856 11.8498C64.6714 11.4411 64.1474 11.2367 63.5138 11.2367C62.8436 11.2367 62.2953 11.4782 61.8688 11.9613C61.4424 12.4444 61.2291 13.1009 61.2291 13.9309C61.2291 14.7484 61.4424 15.3987 61.8688 15.8818C62.2953 16.3649 62.8436 16.6065 63.5138 16.6065C64.1474 16.6065 64.6714 16.4083 65.0856 16.0119C65.5121 15.6031 65.7254 15.1076 65.7254 14.5254Z" fill="black"></path>
          <path class="footi__logo__text" d="M74.2002 18.5946C72.8964 18.5946 71.8241 18.161 70.9834 17.2939C70.1548 16.4268 69.7405 15.3058 69.7405 13.9309C69.7405 12.5559 70.1548 11.4349 70.9834 10.5678C71.8241 9.68831 72.9025 9.24857 74.2185 9.24857C75.3273 9.24857 76.2656 9.55824 77.0332 10.1776C77.8009 10.7846 78.2639 11.6021 78.4223 12.6302L76.2107 12.9833C76.1254 12.4506 75.8939 12.0295 75.5162 11.7198C75.1506 11.3977 74.712 11.2367 74.2002 11.2367C73.5544 11.2367 73.0183 11.4844 72.5918 11.9799C72.1775 12.463 71.9704 13.1133 71.9704 13.9309C71.9704 14.7484 72.1775 15.3987 72.5918 15.8818C73.0183 16.3649 73.5605 16.6065 74.2185 16.6065C74.7302 16.6065 75.175 16.4578 75.5527 16.1605C75.9426 15.8508 76.1863 15.4297 76.2838 14.897L78.4223 15.2501C78.2639 16.2534 77.7948 17.0648 77.0149 17.6841C76.2351 18.2911 75.2968 18.5946 74.2002 18.5946Z" fill="black"></path>
          <path class="footi__logo__text" d="M86.5156 9.47153H88.5078V18.3716H86.5156L86.4059 17.2382H86.3511C86.1074 17.647 85.7358 17.9752 85.2362 18.223C84.7488 18.4707 84.2065 18.5946 83.6095 18.5946C82.4641 18.5946 81.5076 18.161 80.7399 17.2939C79.9723 16.4268 79.5885 15.3058 79.5885 13.9309C79.5885 12.5559 79.9723 11.4349 80.7399 10.5678C81.5076 9.68831 82.4641 9.24857 83.6095 9.24857C84.2065 9.24857 84.7488 9.37244 85.2362 9.62018C85.7358 9.86792 86.1074 10.1962 86.3511 10.6049H86.4059L86.5156 9.47153ZM86.3145 14.5254V13.3177C86.3145 12.7355 86.1013 12.2462 85.6748 11.8498C85.2605 11.4411 84.7366 11.2367 84.103 11.2367C83.4328 11.2367 82.8845 11.4782 82.458 11.9613C82.0315 12.4444 81.8183 13.1009 81.8183 13.9309C81.8183 14.7484 82.0315 15.3987 82.458 15.8818C82.8845 16.3649 83.4328 16.6065 84.103 16.6065C84.7366 16.6065 85.2605 16.4083 85.6748 16.0119C86.1013 15.6031 86.3145 15.1076 86.3145 14.5254Z" fill="black"></path>
          <path d="M13.3774 25C20.281 25 25.8774 19.4036 25.8774 12.5C25.8774 5.59644 20.281 0 13.3774 0C6.47388 0 0.877441 5.59644 0.877441 12.5C0.877441 19.4036 6.47388 25 13.3774 25Z" fill="#FCD72B"></path>
          <mask id="mask0_820_26366" style="mask-type:alpha" maskUnits="userSpaceOnUse" x="0" y="0" width="26" height="25" fill="none">
            <path d="M13.3774 25C20.281 25 25.8774 19.4036 25.8774 12.5C25.8774 5.59644 20.281 0 13.3774 0C6.47388 0 0.877441 5.59644 0.877441 12.5C0.877441 19.4036 6.47388 25 13.3774 25Z" fill="black"></path>
          </mask>
          <g mask="url(#mask0_820_26366)" fill="none">
            <path class="footi__logo__alpaca" d="M18.2035 23.6534C18.0193 23.6534 17.8427 23.5803 17.7124 23.45C17.5822 23.3198 17.509 23.1432 17.509 22.959V10.3895C17.5093 9.79006 17.36 9.19998 17.0748 8.67268C16.7897 8.14538 16.3775 7.69749 15.8757 7.36954C16.0301 7.11689 16.1143 6.82769 16.1198 6.53167C16.1253 6.23566 16.0519 5.94352 15.9071 5.6853C15.7622 5.42709 15.5512 5.21211 15.2957 5.06249C15.0403 4.91286 14.7495 4.83399 14.4535 4.83398V6.22287H14.4301C14.3645 5.83452 14.1634 5.48196 13.8626 5.22772C13.5618 4.97348 13.1807 4.83399 12.7868 4.83398V6.77843H12.2313V6.78176C11.4089 6.81741 10.632 7.16921 10.0627 7.76376C9.49341 8.35832 9.17565 9.14971 9.17571 9.97287C9.17571 9.97787 9.17571 9.98287 9.17571 9.98787L7.30737 11.1957C7.43299 11.9782 7.83333 12.6904 8.43657 13.2044C9.03981 13.7185 9.69537 14.0008 10.4879 14.0007C10.5185 14.0007 10.5479 14.0007 10.5779 14.0007L9.45348 25.834L17.4396 26.3895L17.8563 25.3479L25.8385 25.0701V23.6534H18.2035Z" fill="#FFFFFF"></path>
            <path d="M10.9466 10.5631C10.9468 10.4619 10.987 10.3649 11.0586 10.2934C11.1301 10.2218 11.2271 10.1815 11.3283 10.1814H12.4394C12.4394 10.384 12.3589 10.5784 12.2157 10.7217C12.0724 10.8649 11.8781 10.9454 11.6755 10.9454H10.9116L10.9466 10.5631Z" fill="#FCD72B"></path>
          </g>
        </svg>